<?xml version="1.0" standalone="no"?>
<!DOCTYPE svg PUBLIC "-//W3C//DTD SVG 20010904//EN"
 "http://www.w3.org/TR/2001/REC-SVG-20010904/DTD/svg10.dtd">
<svg version="1.0" xmlns="http://www.w3.org/2000/svg"
 width="700.000000pt" height="700.000000pt" viewBox="0 0 700.000000 700.000000"
 preserveAspectRatio="xMidYMid meet">
<metadata>
Created by potrace 1.14, written by Peter Selinger 2001-2017
</metadata>
<g transform="translate(0.000000,700.000000) scale(0.100000,-0.100000)"
fill="#000000" stroke="none">
<path d="M271 6230 c-5 -3 -8 -338 -7 -745 l1 -740 28 -57 c33 -68 77 -106
173 -153 l72 -34 -3 -118 c-2 -65 -6 -239 -10 -388 -3 -148 -8 -340 -10 -425
-3 -139 -8 -354 -20 -870 -2 -91 -7 -284 -10 -430 -10 -433 -13 -530 -20 -845
-4 -165 -8 -331 -9 -369 -3 -83 10 -113 84 -190 138 -144 278 -128 407 47 l44
61 -6 246 c-3 135 -8 310 -10 390 -2 80 -7 244 -10 365 -3 121 -8 288 -10 370
-2 83 -7 245 -10 360 -3 116 -7 278 -10 360 -3 83 -7 245 -10 360 -7 268 -13
498 -21 750 -3 110 -6 229 -7 264 l-2 63 45 20 c84 37 109 52 143 83 46 42 85
102 93 145 7 35 13 1442 6 1470 -2 12 -20 15 -90 15 l-87 0 -5 -460 -5 -460
-80 0 -80 1 -5 459 -5 459 -92 0 c-54 1 -94 -3 -96 -9 -2 -5 -3 -211 -3 -457
1 -247 -1 -448 -4 -449 -7 -1 -142 -1 -157 0 -9 1 -12 83 -12 344 0 188 0 394
0 457 l-1 115 -91 0 c-50 0 -94 -2 -98 -5z"/>
<path d="M6090 3605 l0 -2627 35 -47 c46 -64 118 -129 162 -148 46 -19 108
-19 153 0 46 20 123 88 161 144 31 45 31 46 25 139 -4 51 -8 101 -10 111 -2
10 -7 59 -11 108 -4 50 -9 101 -10 115 -2 14 -6 57 -9 95 -4 39 -9 86 -11 105
-2 19 -7 70 -10 113 -4 43 -8 86 -10 95 -1 9 -6 61 -10 116 -4 54 -8 108 -10
120 -2 11 -6 53 -10 91 -3 39 -8 88 -10 110 -3 22 -7 69 -10 105 -5 64 -11
128 -20 205 -3 22 -7 76 -10 120 -3 44 -8 91 -10 105 -2 14 -7 61 -10 105 -3
44 -8 96 -10 115 -2 19 -7 64 -10 100 -4 36 -8 81 -10 100 -2 19 -7 71 -10
115 -3 44 -7 94 -10 110 -2 17 -7 62 -10 100 -3 39 -8 91 -10 117 -4 45 -1 53
52 130 31 46 78 128 104 183 47 99 113 286 122 344 3 16 7 34 10 38 3 5 8 27
11 49 4 22 8 51 11 64 52 269 52 631 -2 905 -68 351 -207 632 -381 771 -60 48
-141 90 -191 100 l-30 6 -1 -2627z"/>
<path d="M3330 5697 c-3 -3 -32 -7 -65 -11 -194 -20 -372 -62 -551 -131 -619
-239 -1103 -747 -1306 -1370 -24 -74 -65 -237 -74 -289 -3 -21 -8 -48 -10 -60
-12 -61 -19 -179 -19 -336 0 -189 8 -289 34 -415 41 -206 90 -352 177 -535
312 -653 942 -1120 1651 -1225 23 -3 57 -8 75 -11 18 -4 121 -7 228 -9 378 -6
664 58 995 220 159 78 265 144 398 248 92 72 262 237 322 312 22 28 42 52 45
55 16 14 112 154 152 221 52 85 131 240 152 296 8 21 24 65 36 98 30 81 57
172 80 275 19 85 24 120 38 240 11 103 7 448 -7 530 -7 41 -15 89 -17 105 -7
49 -54 226 -76 290 -117 339 -287 613 -533 860 -328 330 -782 560 -1225 621
-25 3 -54 8 -65 11 -26 6 -429 15 -435 10z"/>
</g>
</svg>
